<?xml version="1.0" standalone="no"?>
<svg xmlns:xlink="http://www.w3.org/1999/xlink" id="wave" style="transform:rotate(0deg); transition: 0.3s" viewBox="0 0 1440 160" version="1.1" xmlns="http://www.w3.org/2000/svg"><defs><linearGradient id="sw-gradient-0" x1="0" x2="0" y1="1" y2="0"><stop stop-color="rgba(255, 255, 255, 1)" offset="0%"/><stop stop-color="rgba(255, 255, 255, 1)" offset="100%"/></linearGradient></defs><path style="transform:translate(0, 0px); opacity:1" fill="url(#sw-gradient-0)" d="M0,64L11.4,56C22.9,48,46,32,69,40C91.4,48,114,80,137,85.3C160,91,183,69,206,72C228.6,75,251,101,274,112C297.1,123,320,117,343,104C365.7,91,389,69,411,56C434.3,43,457,37,480,48C502.9,59,526,85,549,90.7C571.4,96,594,80,617,74.7C640,69,663,75,686,77.3C708.6,80,731,80,754,72C777.1,64,800,48,823,34.7C845.7,21,869,11,891,26.7C914.3,43,937,85,960,109.3C982.9,133,1006,139,1029,122.7C1051.4,107,1074,69,1097,58.7C1120,48,1143,64,1166,72C1188.6,80,1211,80,1234,69.3C1257.1,59,1280,37,1303,34.7C1325.7,32,1349,48,1371,66.7C1394.3,85,1417,107,1440,112C1462.9,117,1486,107,1509,96C1531.4,85,1554,75,1577,72C1600,69,1623,75,1634,77.3L1645.7,80L1645.7,160L1634.3,160C1622.9,160,1600,160,1577,160C1554.3,160,1531,160,1509,160C1485.7,160,1463,160,1440,160C1417.1,160,1394,160,1371,160C1348.6,160,1326,160,1303,160C1280,160,1257,160,1234,160C1211.4,160,1189,160,1166,160C1142.9,160,1120,160,1097,160C1074.3,160,1051,160,1029,160C1005.7,160,983,160,960,160C937.1,160,914,160,891,160C868.6,160,846,160,823,160C800,160,777,160,754,160C731.4,160,709,160,686,160C662.9,160,640,160,617,160C594.3,160,571,160,549,160C525.7,160,503,160,480,160C457.1,160,434,160,411,160C388.6,160,366,160,343,160C320,160,297,160,274,160C251.4,160,229,160,206,160C182.9,160,160,160,137,160C114.3,160,91,160,69,160C45.7,160,23,160,11,160L0,160Z"/></svg>